# xmcd
# Copyright (C) 1995-1998 Ti Kan
#
# Track frame offsets:
#       150
#       15933
#       29554
#       38340
#       51186
#       64014
#       73408
#       83871
#       96698
#       105606
#       121196
#       135255
#
# Disc length: 1936 seconds
#
# Revision: 0
# Processed by: cddbd v1.5.2PL0 Copyright (c) Steve Scherf et al.
# Submitted via: CD-Import v1.0
#
DISCID=9b078e0c
DTITLE=Mama Rosin and Hipbone Slim - Louisiana Sun
DYEAR=11
DGENRE=
TTITLE0=Voodoo Walking
TTITLE1=Gettin' High
TTITLE2=London Zydeco
TTITLE3=Trouble Ain't So Far Away
TTITLE4=Quel Espoir
TTITLE5=The Cat Never Sleeps
TTITLE6=Lousiana Sun
TTITLE7=Killing Two Birds With One Stone
TTITLE8=Citi Two-Step
TTITLE9=Swamp Water
TTITLE10=Princess Havana
TTITLE11=Paint The Town Red
EXTD=
EXTT0=
EXTT1=
EXTT2=
EXTT3=
EXTT4=
EXTT5=
EXTT6=
EXTT7=
EXTT8=
EXTT9=
EXTT10=
EXTT11=
PLAYORDER=
